<svg width="16" height="16" viewBox="0 0 16 16" fill="none" xmlns="http://www.w3.org/2000/svg">
<path d="M8 16.0002C5.86316 16.0002 3.85413 15.1681 2.34314 13.6571C0.832153 12.1461 0 10.1371 0 8.00024C0 5.8634 0.832153 3.85437 2.34314 2.34338C3.85413 0.832397 5.86316 0.000244141 8 0.000244141C10.1368 0.000244141 12.1459 0.832397 13.6569 2.34338C15.1678 3.85437 16 5.8634 16 8.00024C16 10.1371 15.1678 12.1461 13.6569 13.6571C12.1459 15.1681 10.1368 16.0002 8 16.0002ZM8 1.25024C4.27808 1.25024 1.25 4.27832 1.25 8.00024C1.25 11.7222 4.27808 14.7502 8 14.7502C11.7219 14.7502 14.75 11.7222 14.75 8.00024C14.75 4.27832 11.7219 1.25024 8 1.25024ZM11.2925 11.2927L10.4086 10.4088C9.08044 11.7369 6.91956 11.7369 5.59143 10.4088C4.26331 9.08069 4.26331 6.9198 5.59143 5.59167C6.91956 4.26355 9.08044 4.26355 10.4086 5.59167L11.2925 4.70776C9.47693 2.89233 6.52295 2.89233 4.70752 4.70776C2.89209 6.52332 2.89209 9.47729 4.70752 11.2927C5.61523 12.2004 6.80762 12.6543 8 12.6543C9.19226 12.6543 10.3848 12.2004 11.2925 11.2927Z" fill="white"/>
</svg>
