<svg width="150" height="159" viewBox="0 0 150 159" fill="none" xmlns="http://www.w3.org/2000/svg">
<circle cx="147.796" cy="156.054" r="1.99253" transform="rotate(-90.3282 147.796 156.054)" fill="#3370FF" fill-opacity="0.15"/>
<circle cx="134.048" cy="156.077" r="1.99253" transform="rotate(-90.3282 134.048 156.077)" fill="#3370FF" fill-opacity="0.15"/>
<circle cx="15.4887" cy="155.68" r="1.99253" transform="rotate(-0.44526 15.4887 155.68)" fill="#3370FF" fill-opacity="0.15"/>
<circle cx="15.4378" cy="141.933" r="1.99253" transform="rotate(-0.44526 15.4378 141.933)" fill="#3370FF" fill-opacity="0.15"/>
<circle cx="2.53725" cy="155.68" r="1.99253" transform="rotate(-0.44526 2.53725 155.68)" fill="#3370FF" fill-opacity="0.15"/>
<circle cx="2.48632" cy="141.933" r="1.99253" transform="rotate(-0.44526 2.48632 141.933)" fill="#3370FF" fill-opacity="0.15"/>
<circle cx="147.796" cy="16.5771" r="1.99253" transform="rotate(-90.3282 147.796 16.5771)" fill="#3370FF" fill-opacity="0.15"/>
<circle cx="134.048" cy="16.5999" r="1.99253" transform="rotate(-90.3282 134.048 16.5999)" fill="#3370FF" fill-opacity="0.15"/>
<circle cx="147.796" cy="2.62931" r="1.99253" transform="rotate(-90.3282 147.796 2.62931)" fill="#3370FF" fill-opacity="0.15"/>
<circle cx="134.048" cy="2.65217" r="1.99253" transform="rotate(-90.3282 134.048 2.65217)" fill="#3370FF" fill-opacity="0.15"/>
<circle cx="147.996" cy="142.129" r="1.99253" transform="rotate(-90.3282 147.996 142.129)" fill="#3370FF" fill-opacity="0.15"/>
<circle cx="134.249" cy="142.152" r="1.99253" transform="rotate(-90.3282 134.249 142.152)" fill="#3370FF" fill-opacity="0.15"/>
<circle cx="147.996" cy="128.182" r="1.99253" transform="rotate(-90.3282 147.996 128.182)" fill="#3370FF" fill-opacity="0.15"/>
<circle cx="134.249" cy="128.204" r="1.99253" transform="rotate(-90.3282 134.249 128.204)" fill="#3370FF" fill-opacity="0.15"/>
<circle cx="147.996" cy="114.234" r="1.99253" transform="rotate(-90.3282 147.996 114.234)" fill="#3370FF" fill-opacity="0.15"/>
<circle cx="134.249" cy="114.257" r="1.99253" transform="rotate(-90.3282 134.249 114.257)" fill="#3370FF" fill-opacity="0.15"/>
<circle cx="147.996" cy="100.286" r="1.99253" transform="rotate(-90.3282 147.996 100.286)" fill="#3370FF" fill-opacity="0.15"/>
<circle cx="134.249" cy="100.309" r="1.99253" transform="rotate(-90.3282 134.249 100.309)" fill="#3370FF" fill-opacity="0.15"/>
<circle cx="147.996" cy="86.3385" r="1.99253" transform="rotate(-90.3282 147.996 86.3385)" fill="#3370FF" fill-opacity="0.15"/>
<circle cx="134.249" cy="86.3613" r="1.99253" transform="rotate(-90.3282 134.249 86.3613)" fill="#3370FF" fill-opacity="0.15"/>
<circle cx="147.996" cy="72.3908" r="1.99253" transform="rotate(-90.3282 147.996 72.3908)" fill="#3370FF" fill-opacity="0.15"/>
<circle cx="134.249" cy="72.4137" r="1.99253" transform="rotate(-90.3282 134.249 72.4137)" fill="#3370FF" fill-opacity="0.15"/>
<circle cx="147.996" cy="58.4431" r="1.99253" transform="rotate(-90.3282 147.996 58.4431)" fill="#3370FF" fill-opacity="0.15"/>
<circle cx="134.249" cy="58.466" r="1.99253" transform="rotate(-90.3282 134.249 58.466)" fill="#3370FF" fill-opacity="0.15"/>
<circle cx="147.996" cy="44.4952" r="1.99253" transform="rotate(-90.3282 147.996 44.4952)" fill="#3370FF" fill-opacity="0.15"/>
<circle cx="134.249" cy="44.5181" r="1.99253" transform="rotate(-90.3282 134.249 44.5181)" fill="#3370FF" fill-opacity="0.15"/>
<circle cx="147.996" cy="30.5475" r="1.99253" transform="rotate(-90.3282 147.996 30.5475)" fill="#3370FF" fill-opacity="0.15"/>
<circle cx="134.249" cy="30.5704" r="1.99253" transform="rotate(-90.3282 134.249 30.5704)" fill="#3370FF" fill-opacity="0.15"/>
<circle cx="95.194" cy="156.077" r="1.99253" transform="rotate(-90.3282 95.194 156.077)" fill="#3370FF" fill-opacity="0.15"/>
<circle cx="81.4466" cy="156.1" r="1.99253" transform="rotate(-90.3282 81.4466 156.1)" fill="#3370FF" fill-opacity="0.15"/>
<circle cx="15.3583" cy="103.079" r="1.99253" transform="rotate(-0.44526 15.3583 103.079)" fill="#3370FF" fill-opacity="0.15"/>
<circle cx="15.3074" cy="89.3313" r="1.99253" transform="rotate(-0.44526 15.3074 89.3313)" fill="#3370FF" fill-opacity="0.15"/>
<circle cx="2.40688" cy="103.079" r="1.99253" transform="rotate(-0.44526 2.40688 103.079)" fill="#3370FF" fill-opacity="0.15"/>
<circle cx="2.35595" cy="89.3313" r="1.99253" transform="rotate(-0.44526 2.35595 89.3313)" fill="#3370FF" fill-opacity="0.15"/>
<circle cx="95.194" cy="16.5999" r="1.99253" transform="rotate(-90.3282 95.194 16.5999)" fill="#3370FF" fill-opacity="0.15"/>
<circle cx="81.4466" cy="16.6227" r="1.99253" transform="rotate(-90.3282 81.4466 16.6227)" fill="#3370FF" fill-opacity="0.15"/>
<circle cx="95.194" cy="2.65218" r="1.99253" transform="rotate(-90.3282 95.194 2.65218)" fill="#3370FF" fill-opacity="0.15"/>
<circle cx="81.4466" cy="2.67504" r="1.99253" transform="rotate(-90.3282 81.4466 2.67504)" fill="#3370FF" fill-opacity="0.15"/>
<circle cx="95.3943" cy="142.152" r="1.99253" transform="rotate(-90.3282 95.3943 142.152)" fill="#3370FF" fill-opacity="0.15"/>
<circle cx="81.6469" cy="142.175" r="1.99253" transform="rotate(-90.3282 81.6469 142.175)" fill="#3370FF" fill-opacity="0.15"/>
<circle cx="95.3943" cy="128.205" r="1.99253" transform="rotate(-90.3282 95.3943 128.205)" fill="#3370FF" fill-opacity="0.15"/>
<circle cx="81.6469" cy="128.227" r="1.99253" transform="rotate(-90.3282 81.6469 128.227)" fill="#3370FF" fill-opacity="0.15"/>
<circle cx="95.3943" cy="114.257" r="1.99253" transform="rotate(-90.3282 95.3943 114.257)" fill="#3370FF" fill-opacity="0.15"/>
<circle cx="81.6469" cy="114.28" r="1.99253" transform="rotate(-90.3282 81.6469 114.28)" fill="#3370FF" fill-opacity="0.15"/>
<circle cx="95.3943" cy="100.309" r="1.99253" transform="rotate(-90.3282 95.3943 100.309)" fill="#3370FF" fill-opacity="0.15"/>
<circle cx="81.6469" cy="100.332" r="1.99253" transform="rotate(-90.3282 81.6469 100.332)" fill="#3370FF" fill-opacity="0.15"/>
<circle cx="95.3943" cy="86.3613" r="1.99253" transform="rotate(-90.3282 95.3943 86.3613)" fill="#3370FF" fill-opacity="0.15"/>
<circle cx="81.6469" cy="86.3841" r="1.99253" transform="rotate(-90.3282 81.6469 86.3841)" fill="#3370FF" fill-opacity="0.15"/>
<circle cx="95.3943" cy="72.4136" r="1.99253" transform="rotate(-90.3282 95.3943 72.4136)" fill="#3370FF" fill-opacity="0.15"/>
<circle cx="81.6469" cy="72.4365" r="1.99253" transform="rotate(-90.3282 81.6469 72.4365)" fill="#3370FF" fill-opacity="0.15"/>
<circle cx="95.3943" cy="58.4659" r="1.99253" transform="rotate(-90.3282 95.3943 58.4659)" fill="#3370FF" fill-opacity="0.15"/>
<circle cx="81.6469" cy="58.4888" r="1.99253" transform="rotate(-90.3282 81.6469 58.4888)" fill="#3370FF" fill-opacity="0.15"/>
<circle cx="95.3943" cy="44.5182" r="1.99253" transform="rotate(-90.3282 95.3943 44.5182)" fill="#3370FF" fill-opacity="0.15"/>
<circle cx="81.6469" cy="44.5411" r="1.99253" transform="rotate(-90.3282 81.6469 44.5411)" fill="#3370FF" fill-opacity="0.15"/>
<circle cx="95.3943" cy="30.5706" r="1.99253" transform="rotate(-90.3282 95.3943 30.5706)" fill="#3370FF" fill-opacity="0.15"/>
<circle cx="81.6469" cy="30.5934" r="1.99253" transform="rotate(-90.3282 81.6469 30.5934)" fill="#3370FF" fill-opacity="0.15"/>
<circle cx="122.093" cy="156.077" r="1.99253" transform="rotate(-90.3282 122.093 156.077)" fill="#3370FF" fill-opacity="0.15"/>
<circle cx="108.346" cy="156.1" r="1.99253" transform="rotate(-90.3282 108.346 156.1)" fill="#3370FF" fill-opacity="0.15"/>
<circle cx="15.4133" cy="129.977" r="1.99253" transform="rotate(-0.44526 15.4133 129.977)" fill="#3370FF" fill-opacity="0.15"/>
<circle cx="15.3624" cy="116.23" r="1.99253" transform="rotate(-0.44526 15.3624 116.23)" fill="#3370FF" fill-opacity="0.15"/>
<circle cx="2.46184" cy="129.977" r="1.99253" transform="rotate(-0.44526 2.46184 129.977)" fill="#3370FF" fill-opacity="0.15"/>
<circle cx="2.41088" cy="116.23" r="1.99253" transform="rotate(-0.44526 2.41088 116.23)" fill="#3370FF" fill-opacity="0.15"/>
<circle cx="122.093" cy="16.5999" r="1.99253" transform="rotate(-90.3282 122.093 16.5999)" fill="#3370FF" fill-opacity="0.15"/>
<circle cx="108.346" cy="16.6227" r="1.99253" transform="rotate(-90.3282 108.346 16.6227)" fill="#3370FF" fill-opacity="0.15"/>
<circle cx="122.093" cy="2.65218" r="1.99253" transform="rotate(-90.3282 122.093 2.65218)" fill="#3370FF" fill-opacity="0.15"/>
<circle cx="108.346" cy="2.67504" r="1.99253" transform="rotate(-90.3282 108.346 2.67504)" fill="#3370FF" fill-opacity="0.15"/>
<circle cx="122.293" cy="142.152" r="1.99253" transform="rotate(-90.3282 122.293 142.152)" fill="#3370FF" fill-opacity="0.15"/>
<circle cx="108.546" cy="142.175" r="1.99253" transform="rotate(-90.3282 108.546 142.175)" fill="#3370FF" fill-opacity="0.15"/>
<circle cx="122.293" cy="128.205" r="1.99253" transform="rotate(-90.3282 122.293 128.205)" fill="#3370FF" fill-opacity="0.15"/>
<circle cx="108.546" cy="128.227" r="1.99253" transform="rotate(-90.3282 108.546 128.227)" fill="#3370FF" fill-opacity="0.15"/>
<circle cx="122.293" cy="114.257" r="1.99253" transform="rotate(-90.3282 122.293 114.257)" fill="#3370FF" fill-opacity="0.15"/>
<circle cx="108.546" cy="114.28" r="1.99253" transform="rotate(-90.3282 108.546 114.28)" fill="#3370FF" fill-opacity="0.15"/>
<circle cx="122.293" cy="100.309" r="1.99253" transform="rotate(-90.3282 122.293 100.309)" fill="#3370FF" fill-opacity="0.15"/>
<circle cx="108.546" cy="100.332" r="1.99253" transform="rotate(-90.3282 108.546 100.332)" fill="#3370FF" fill-opacity="0.15"/>
<circle cx="122.293" cy="86.3613" r="1.99253" transform="rotate(-90.3282 122.293 86.3613)" fill="#3370FF" fill-opacity="0.15"/>
<circle cx="108.546" cy="86.3841" r="1.99253" transform="rotate(-90.3282 108.546 86.3841)" fill="#3370FF" fill-opacity="0.15"/>
<circle cx="122.293" cy="72.4136" r="1.99253" transform="rotate(-90.3282 122.293 72.4136)" fill="#3370FF" fill-opacity="0.15"/>
<circle cx="108.546" cy="72.4365" r="1.99253" transform="rotate(-90.3282 108.546 72.4365)" fill="#3370FF" fill-opacity="0.15"/>
<circle cx="122.293" cy="58.4659" r="1.99253" transform="rotate(-90.3282 122.293 58.4659)" fill="#3370FF" fill-opacity="0.15"/>
<circle cx="108.546" cy="58.4888" r="1.99253" transform="rotate(-90.3282 108.546 58.4888)" fill="#3370FF" fill-opacity="0.15"/>
<circle cx="122.293" cy="44.5182" r="1.99253" transform="rotate(-90.3282 122.293 44.5182)" fill="#3370FF" fill-opacity="0.15"/>
<circle cx="108.546" cy="44.5411" r="1.99253" transform="rotate(-90.3282 108.546 44.5411)" fill="#3370FF" fill-opacity="0.15"/>
<circle cx="122.293" cy="30.5706" r="1.99253" transform="rotate(-90.3282 122.293 30.5706)" fill="#3370FF" fill-opacity="0.15"/>
<circle cx="108.546" cy="30.5934" r="1.99253" transform="rotate(-90.3282 108.546 30.5934)" fill="#3370FF" fill-opacity="0.15"/>
<circle cx="69.4914" cy="156.1" r="1.99253" transform="rotate(-90.3282 69.4914 156.1)" fill="#3370FF" fill-opacity="0.15"/>
<circle cx="55.744" cy="156.123" r="1.99253" transform="rotate(-90.3282 55.744 156.123)" fill="#3370FF" fill-opacity="0.15"/>
<circle cx="15.2829" cy="77.376" r="1.99253" transform="rotate(-0.44526 15.2829 77.376)" fill="#3370FF" fill-opacity="0.15"/>
<circle cx="15.232" cy="63.6287" r="1.99253" transform="rotate(-0.44526 15.232 63.6287)" fill="#3370FF" fill-opacity="0.15"/>
<circle cx="2.33147" cy="77.376" r="1.99253" transform="rotate(-0.44526 2.33147 77.376)" fill="#3370FF" fill-opacity="0.15"/>
<circle cx="2.28051" cy="63.6287" r="1.99253" transform="rotate(-0.44526 2.28051 63.6287)" fill="#3370FF" fill-opacity="0.15"/>
<circle cx="69.4914" cy="16.6226" r="1.99253" transform="rotate(-90.3282 69.4914 16.6226)" fill="#3370FF" fill-opacity="0.15"/>
<circle cx="55.744" cy="16.6455" r="1.99253" transform="rotate(-90.3282 55.744 16.6455)" fill="#3370FF" fill-opacity="0.15"/>
<circle cx="69.4914" cy="2.67496" r="1.99253" transform="rotate(-90.3282 69.4914 2.67496)" fill="#3370FF" fill-opacity="0.15"/>
<circle cx="55.744" cy="2.69783" r="1.99253" transform="rotate(-90.3282 55.744 2.69783)" fill="#3370FF" fill-opacity="0.15"/>
<circle cx="69.6917" cy="142.175" r="1.99253" transform="rotate(-90.3282 69.6917 142.175)" fill="#3370FF" fill-opacity="0.15"/>
<circle cx="55.9443" cy="142.198" r="1.99253" transform="rotate(-90.3282 55.9443 142.198)" fill="#3370FF" fill-opacity="0.15"/>
<circle cx="69.6917" cy="128.227" r="1.99253" transform="rotate(-90.3282 69.6917 128.227)" fill="#3370FF" fill-opacity="0.15"/>
<circle cx="55.9443" cy="128.25" r="1.99253" transform="rotate(-90.3282 55.9443 128.25)" fill="#3370FF" fill-opacity="0.15"/>
<circle cx="69.6917" cy="114.28" r="1.99253" transform="rotate(-90.3282 69.6917 114.28)" fill="#3370FF" fill-opacity="0.15"/>
<circle cx="55.9443" cy="114.302" r="1.99253" transform="rotate(-90.3282 55.9443 114.302)" fill="#3370FF" fill-opacity="0.15"/>
<circle cx="69.6917" cy="100.332" r="1.99253" transform="rotate(-90.3282 69.6917 100.332)" fill="#3370FF" fill-opacity="0.15"/>
<circle cx="55.9443" cy="100.355" r="1.99253" transform="rotate(-90.3282 55.9443 100.355)" fill="#3370FF" fill-opacity="0.15"/>
<circle cx="69.6917" cy="86.3843" r="1.99253" transform="rotate(-90.3282 69.6917 86.3843)" fill="#3370FF" fill-opacity="0.15"/>
<circle cx="55.9443" cy="86.4071" r="1.99253" transform="rotate(-90.3282 55.9443 86.4071)" fill="#3370FF" fill-opacity="0.15"/>
<circle cx="69.6917" cy="72.4364" r="1.99253" transform="rotate(-90.3282 69.6917 72.4364)" fill="#3370FF" fill-opacity="0.15"/>
<circle cx="55.9443" cy="72.4592" r="1.99253" transform="rotate(-90.3282 55.9443 72.4592)" fill="#3370FF" fill-opacity="0.15"/>
<circle cx="69.6917" cy="58.4887" r="1.99253" transform="rotate(-90.3282 69.6917 58.4887)" fill="#3370FF" fill-opacity="0.15"/>
<circle cx="55.9443" cy="58.5115" r="1.99253" transform="rotate(-90.3282 55.9443 58.5115)" fill="#3370FF" fill-opacity="0.15"/>
<circle cx="69.6917" cy="44.541" r="1.99253" transform="rotate(-90.3282 69.6917 44.541)" fill="#3370FF" fill-opacity="0.15"/>
<circle cx="55.9443" cy="44.5639" r="1.99253" transform="rotate(-90.3282 55.9443 44.5639)" fill="#3370FF" fill-opacity="0.15"/>
<circle cx="69.6917" cy="30.5933" r="1.99253" transform="rotate(-90.3282 69.6917 30.5933)" fill="#3370FF" fill-opacity="0.15"/>
<circle cx="55.9443" cy="30.6162" r="1.99253" transform="rotate(-90.3282 55.9443 30.6162)" fill="#3370FF" fill-opacity="0.15"/>
<circle cx="42.392" cy="156.077" r="1.99253" transform="rotate(-90.3282 42.392 156.077)" fill="#3370FF" fill-opacity="0.15"/>
<circle cx="28.6446" cy="156.1" r="1.99253" transform="rotate(-90.3282 28.6446 156.1)" fill="#3370FF" fill-opacity="0.15"/>
<circle cx="15.2505" cy="50.2767" r="1.99253" transform="rotate(-0.44526 15.2505 50.2767)" fill="#3370FF" fill-opacity="0.15"/>
<circle cx="15.1995" cy="36.5294" r="1.99253" transform="rotate(-0.44526 15.1995 36.5294)" fill="#3370FF" fill-opacity="0.15"/>
<circle cx="2.299" cy="50.2767" r="1.99253" transform="rotate(-0.44526 2.299 50.2767)" fill="#3370FF" fill-opacity="0.15"/>
<circle cx="2.24804" cy="36.5294" r="1.99253" transform="rotate(-0.44526 2.24804 36.5294)" fill="#3370FF" fill-opacity="0.15"/>
<circle cx="42.392" cy="16.5999" r="1.99253" transform="rotate(-90.3282 42.392 16.5999)" fill="#3370FF" fill-opacity="0.15"/>
<circle cx="28.6445" cy="16.6227" r="1.99253" transform="rotate(-90.3282 28.6445 16.6227)" fill="#3370FF" fill-opacity="0.15"/>
<circle cx="42.392" cy="2.65218" r="1.99253" transform="rotate(-90.3282 42.392 2.65218)" fill="#3370FF" fill-opacity="0.15"/>
<circle cx="28.6446" cy="2.67504" r="1.99253" transform="rotate(-90.3282 28.6446 2.67504)" fill="#3370FF" fill-opacity="0.15"/>
<circle cx="42.5922" cy="142.152" r="1.99253" transform="rotate(-90.3282 42.5922 142.152)" fill="#3370FF" fill-opacity="0.15"/>
<circle cx="28.8448" cy="142.175" r="1.99253" transform="rotate(-90.3282 28.8448 142.175)" fill="#3370FF" fill-opacity="0.15"/>
<circle cx="42.5922" cy="128.205" r="1.99253" transform="rotate(-90.3282 42.5922 128.205)" fill="#3370FF" fill-opacity="0.15"/>
<circle cx="28.8448" cy="128.227" r="1.99253" transform="rotate(-90.3282 28.8448 128.227)" fill="#3370FF" fill-opacity="0.15"/>
<circle cx="42.5922" cy="114.257" r="1.99253" transform="rotate(-90.3282 42.5922 114.257)" fill="#3370FF" fill-opacity="0.15"/>
<circle cx="28.8448" cy="114.28" r="1.99253" transform="rotate(-90.3282 28.8448 114.28)" fill="#3370FF" fill-opacity="0.15"/>
<circle cx="42.5922" cy="100.309" r="1.99253" transform="rotate(-90.3282 42.5922 100.309)" fill="#3370FF" fill-opacity="0.15"/>
<circle cx="28.8448" cy="100.332" r="1.99253" transform="rotate(-90.3282 28.8448 100.332)" fill="#3370FF" fill-opacity="0.15"/>
<circle cx="42.5922" cy="86.3613" r="1.99253" transform="rotate(-90.3282 42.5922 86.3613)" fill="#3370FF" fill-opacity="0.15"/>
<circle cx="28.8448" cy="86.3841" r="1.99253" transform="rotate(-90.3282 28.8448 86.3841)" fill="#3370FF" fill-opacity="0.15"/>
<circle cx="42.5922" cy="72.4136" r="1.99253" transform="rotate(-90.3282 42.5922 72.4136)" fill="#3370FF" fill-opacity="0.15"/>
<circle cx="28.8448" cy="72.4365" r="1.99253" transform="rotate(-90.3282 28.8448 72.4365)" fill="#3370FF" fill-opacity="0.15"/>
<circle cx="42.5922" cy="58.4659" r="1.99253" transform="rotate(-90.3282 42.5922 58.4659)" fill="#3370FF" fill-opacity="0.15"/>
<circle cx="28.8448" cy="58.4888" r="1.99253" transform="rotate(-90.3282 28.8448 58.4888)" fill="#3370FF" fill-opacity="0.15"/>
<circle cx="42.5922" cy="44.5182" r="1.99253" transform="rotate(-90.3282 42.5922 44.5182)" fill="#3370FF" fill-opacity="0.15"/>
<circle cx="28.8448" cy="44.5411" r="1.99253" transform="rotate(-90.3282 28.8448 44.5411)" fill="#3370FF" fill-opacity="0.15"/>
<circle cx="42.5922" cy="30.5706" r="1.99253" transform="rotate(-90.3282 42.5922 30.5706)" fill="#3370FF" fill-opacity="0.15"/>
<circle cx="28.8448" cy="30.5934" r="1.99253" transform="rotate(-90.3282 28.8448 30.5934)" fill="#3370FF" fill-opacity="0.15"/>
</svg>
